<svg xmlns="http://www.w3.org/2000/svg" xmlns:xlink="http://www.w3.org/1999/xlink" version="1.1" width="256" height="256" viewBox="0 0 256 256" xml:space="preserve">

<defs>
</defs>
<g style="stroke: none; stroke-width: 0; stroke-dasharray: none; stroke-linecap: butt; stroke-linejoin: miter; stroke-miterlimit: 10; fill: none; fill-rule: nonzero; opacity: 1;" transform="translate(1.4065934065934016 1.4065934065934016) scale(2.81 2.81)" >
	<path d="M 37.181 80.599 c -0.552 0 -1 -0.447 -1 -1 V 41.378 c 0 -0.552 0.448 -1 1 -1 s 1 0.448 1 1 v 38.221 C 38.181 80.151 37.733 80.599 37.181 80.599 z" style="stroke: none; stroke-width: 1; stroke-dasharray: none; stroke-linecap: butt; stroke-linejoin: miter; stroke-miterlimit: 10; fill: rgb(0,0,0); fill-rule: nonzero; opacity: 1;" transform=" matrix(1 0 0 1 0 0) " stroke-linecap="round" />
	<path d="M 49.268 80.599 c -0.553 0 -1 -0.447 -1 -1 V 50.906 c 0 -0.553 0.447 -1 1 -1 s 1 0.447 1 1 v 28.692 C 50.268 80.151 49.82 80.599 49.268 80.599 z" style="stroke: none; stroke-width: 1; stroke-dasharray: none; stroke-linecap: butt; stroke-linejoin: miter; stroke-miterlimit: 10; fill: rgb(0,0,0); fill-rule: nonzero; opacity: 1;" transform=" matrix(1 0 0 1 0 0) " stroke-linecap="round" />
	<path d="M 25.095 80.599 c -0.552 0 -1 -0.447 -1 -1 V 48.247 c 0 -0.553 0.448 -1 1 -1 s 1 0.447 1 1 v 31.352 C 26.095 80.151 25.647 80.599 25.095 80.599 z" style="stroke: none; stroke-width: 1; stroke-dasharray: none; stroke-linecap: butt; stroke-linejoin: miter; stroke-miterlimit: 10; fill: rgb(0,0,0); fill-rule: nonzero; opacity: 1;" transform=" matrix(1 0 0 1 0 0) " stroke-linecap="round" />
	<path d="M 73.337 29.566 H 61.539 v -1.993 c 1.702 -2.224 2.716 -4.995 2.716 -7.991 c 0 -7.276 -5.92 -13.196 -13.196 -13.196 c -1.753 0 -3.447 0.339 -5.05 1.008 C 44.14 2.928 39.797 0 34.872 0 c -4.774 0 -9.002 2.739 -10.969 7.04 c -0.21 -0.01 -0.421 -0.016 -0.634 -0.016 c -8.051 0 -14.601 6.55 -14.601 14.601 c 0 0.026 0 0.051 0.002 0.077 c -0.001 0.021 -0.002 0.043 -0.002 0.064 v 29.095 c 0 2.454 1.806 4.479 4.156 4.855 v 29.418 c 0 2.684 2.183 4.866 4.866 4.866 h 38.983 c 2.684 0 4.866 -2.183 4.866 -4.866 V 71.122 h 11.798 c 4.408 0 7.995 -3.674 7.995 -8.189 V 37.757 C 81.332 33.241 77.745 29.566 73.337 29.566 z M 61.539 37.61 h 9.642 c 1.138 0 2.063 0.925 2.063 2.062 v 21.345 c 0 1.138 -0.925 2.063 -2.063 2.063 h -9.642 V 37.61 z M 10.667 50.861 V 21.887 c 0.005 -0.043 0.008 -0.087 0.007 -0.131 l -0.007 -0.131 c 0 -6.948 5.653 -12.601 12.601 -12.601 c 0.4 0 0.794 0.024 1.185 0.06 c 0.447 0.038 0.863 -0.218 1.025 -0.635 C 26.994 4.531 30.681 2 34.872 2 c 4.429 0 8.294 2.837 9.619 7.061 c 0.088 0.282 0.297 0.511 0.57 0.624 c 0.272 0.113 0.583 0.1 0.845 -0.036 c 1.612 -0.838 3.345 -1.263 5.153 -1.263 c 6.174 0 11.196 5.022 11.196 11.196 c 0 5.916 -4.63 10.818 -10.539 11.162 c -0.529 0.031 -0.942 0.469 -0.942 0.999 v 6.934 c 0 1.618 -1.316 2.934 -2.934 2.934 c -1.618 0 -2.934 -1.316 -2.934 -2.934 v -5.285 c 0 -0.337 -0.17 -0.652 -0.453 -0.837 c -0.282 -0.184 -0.638 -0.214 -0.948 -0.079 c -1.005 0.439 -2.063 0.663 -3.143 0.663 c -2.434 0 -4.698 -1.103 -6.211 -3.026 c -0.182 -0.231 -0.458 -0.371 -0.752 -0.381 c -0.292 -0.011 -0.579 0.111 -0.776 0.33 c -1.916 2.125 -4.536 3.542 -7.376 3.992 c -0.486 0.077 -0.844 0.496 -0.844 0.988 v 2.537 c 0 1.618 -1.316 2.934 -2.934 2.934 s -2.934 -1.316 -2.934 -2.934 c 0 -0.552 -0.448 -1 -1 -1 s -1 0.448 -1 1 v 13.284 c 0 1.617 -1.316 2.934 -2.934 2.934 S 10.667 52.479 10.667 50.861 z M 56.673 88 H 17.689 c -1.581 0 -2.866 -1.286 -2.866 -2.866 v -29.51 c 2.128 -0.547 3.712 -2.465 3.712 -4.762 v -9.32 c 0.82 0.609 1.836 0.969 2.934 0.969 c 2.72 0 4.934 -2.213 4.934 -4.934 v -1.708 c 2.6 -0.571 5.004 -1.846 6.926 -3.669 c 1.855 1.88 4.362 2.938 7.034 2.938 c 0.863 0 1.714 -0.113 2.544 -0.337 v 3.875 c 0 2.721 2.213 4.934 4.934 4.934 s 4.934 -2.213 4.934 -4.934 v -6.023 c 2.567 -0.333 4.888 -1.41 6.766 -2.989 v 55.47 C 59.539 86.714 58.253 88 56.673 88 z M 79.332 62.933 c 0 3.413 -2.689 6.189 -5.995 6.189 H 61.539 v -4.043 h 9.642 c 2.24 0 4.063 -1.822 4.063 -4.063 V 39.672 c 0 -2.24 -1.822 -4.062 -4.063 -4.062 h -9.642 v -4.043 h 11.798 c 3.306 0 5.995 2.777 5.995 6.19 V 62.933 z" style="stroke: none; stroke-width: 1; stroke-dasharray: none; stroke-linecap: butt; stroke-linejoin: miter; stroke-miterlimit: 10; fill: rgb(0,0,0); fill-rule: nonzero; opacity: 1;" transform=" matrix(1 0 0 1 0 0) " stroke-linecap="round" />
</g>
</svg>